<?xml version="1.0" encoding="UTF-8" standalone="no"?>
<!-- Created with Inkscape (http://www.inkscape.org/) -->

<svg
   xmlns:dc="http://purl.org/dc/elements/1.1/"
   xmlns:cc="http://creativecommons.org/ns#"
   xmlns:rdf="http://www.w3.org/1999/02/22-rdf-syntax-ns#"
   xmlns:svg="http://www.w3.org/2000/svg"
   xmlns="http://www.w3.org/2000/svg"
   xmlns:sodipodi="http://sodipodi.sourceforge.net/DTD/sodipodi-0.dtd"
   xmlns:inkscape="http://www.inkscape.org/namespaces/inkscape"
   width="12"
   height="12"
   viewBox="0 0 12 12"
   id="svg4216"
   version="1.1"
   inkscape:version="0.91 r13725"
   sodipodi:docname="close.svg">
  <defs
     id="defs4218" />
  <sodipodi:namedview
     id="base"
     pagecolor="#ffffff"
     bordercolor="#666666"
     borderopacity="1.0"
     inkscape:pageopacity="0.0"
     inkscape:pageshadow="2"
     inkscape:zoom="44.8"
     inkscape:cx="4.1559123"
     inkscape:cy="4.8313983"
     inkscape:document-units="px"
     inkscape:current-layer="layer1"
     showgrid="false"
     units="px"
     inkscape:window-width="1920"
     inkscape:window-height="1028"
     inkscape:window-x="-8"
     inkscape:window-y="-8"
     inkscape:window-maximized="1"
     inkscape:object-paths="true"
     inkscape:snap-intersection-paths="true"
     inkscape:object-nodes="true"
     inkscape:snap-smooth-nodes="true" />
  <metadata
     id="metadata4221">
    <rdf:RDF>
      <cc:Work
         rdf:about="">
        <dc:format>image/svg+xml</dc:format>
        <dc:type
           rdf:resource="http://purl.org/dc/dcmitype/StillImage" />
        <dc:title />
      </cc:Work>
    </rdf:RDF>
  </metadata>
  <g
     inkscape:label="Layer 1"
     inkscape:groupmode="layer"
     id="layer1"
     transform="translate(0,-1040.3622)">
    <path
       style="color:#000000;clip-rule:nonzero;display:inline;overflow:visible;visibility:visible;opacity:1;isolation:auto;mix-blend-mode:normal;color-interpolation:sRGB;color-interpolation-filters:linearRGB;solid-color:#000000;solid-opacity:1;fill:#000000;fill-opacity:1;fill-rule:evenodd;stroke:none;stroke-width:1;stroke-linecap:round;stroke-linejoin:miter;stroke-miterlimit:4;stroke-dasharray:none;stroke-dashoffset:0;stroke-opacity:1;color-rendering:auto;image-rendering:auto;shape-rendering:auto;text-rendering:auto;enable-background:accumulate"
       d="m 2.9081908,1042.7622 c 0.2324213,0 0.4647584,0.089 0.6421314,0.2661 l 0.963197,0.9631 1.4864809,1.4848 1.484707,-1.4848 0.963197,-0.9631 c 0.3546774,-0.3548 0.9313595,-0.3548 1.2860364,0 0.3546775,0.3546 0.3546775,0.9294 0,1.2842 l -0.9631972,0.9632 -1.4864805,1.4865 1.4864805,1.4848 0.9631972,0.9631 c 0.3547465,0.3548 0.3547465,0.9314 0,1.286 -0.3546552,0.3548 -0.9312909,0.3548 -1.2860364,0 l -0.963197,-0.9631 -1.484707,-1.4865 -1.4864809,1.4865 -0.963197,0.9631 c -0.354677,0.3548 -0.9295858,0.3548 -1.2842627,0 -0.354677,-0.3546 -0.354677,-0.9312 0,-1.286 l 0.963197,-0.9631 1.484707,-1.4848 -1.484707,-1.4865 -0.963197,-0.9632 c -0.354746,-0.3548 -0.354746,-0.9296 0,-1.2842 0.1773275,-0.1771 0.40971,-0.2661 0.6421313,-0.2661 z"
       id="rect4134"
       inkscape:connector-curvature="0"
       sodipodi:nodetypes="sscccccccccscscccccccccscs" />
  </g>
</svg>
