<?xml version="1.0" encoding="UTF-8" standalone="no"?>
<!-- Created with Inkscape (http://www.inkscape.org/) -->

<svg
   xmlns:dc="http://purl.org/dc/elements/1.1/"
   xmlns:cc="http://creativecommons.org/ns#"
   xmlns:rdf="http://www.w3.org/1999/02/22-rdf-syntax-ns#"
   xmlns:svg="http://www.w3.org/2000/svg"
   xmlns="http://www.w3.org/2000/svg"
   xmlns:sodipodi="http://sodipodi.sourceforge.net/DTD/sodipodi-0.dtd"
   xmlns:inkscape="http://www.inkscape.org/namespaces/inkscape"
   width="12"
   height="12"
   viewBox="0 0 12 12"
   id="svg4216"
   version="1.1"
   inkscape:version="0.91 r13725"
   sodipodi:docname="close.svg">
  <defs
     id="defs4218" />
  <sodipodi:namedview
     id="base"
     pagecolor="#ffffff"
     bordercolor="#666666"
     borderopacity="1.0"
     inkscape:pageopacity="0.0"
     inkscape:pageshadow="2"
     inkscape:zoom="44.8"
     inkscape:cx="2.5876416"
     inkscape:cy="6.315267"
     inkscape:document-units="px"
     inkscape:current-layer="layer1"
     showgrid="false"
     units="px"
     inkscape:window-width="1920"
     inkscape:window-height="1028"
     inkscape:window-x="-8"
     inkscape:window-y="-8"
     inkscape:window-maximized="1"
     inkscape:object-paths="true"
     inkscape:snap-intersection-paths="true"
     inkscape:object-nodes="true"
     inkscape:snap-smooth-nodes="true" />
  <metadata
     id="metadata4221">
    <rdf:RDF>
      <cc:Work
         rdf:about="">
        <dc:format>image/svg+xml</dc:format>
        <dc:type
           rdf:resource="http://purl.org/dc/dcmitype/StillImage" />
        <dc:title></dc:title>
      </cc:Work>
    </rdf:RDF>
  </metadata>
  <g
     inkscape:label="Layer 1"
     inkscape:groupmode="layer"
     id="layer1"
     transform="translate(0,-1040.3622)">
    <path
       style="color:#000000;clip-rule:nonzero;display:inline;overflow:visible;visibility:visible;opacity:1;isolation:auto;mix-blend-mode:normal;color-interpolation:sRGB;color-interpolation-filters:linearRGB;solid-color:#000000;solid-opacity:1;fill:#000000;fill-opacity:1;fill-rule:evenodd;stroke:none;stroke-width:1;stroke-linecap:round;stroke-linejoin:miter;stroke-miterlimit:4;stroke-dasharray:none;stroke-dashoffset:0;stroke-opacity:1;color-rendering:auto;image-rendering:auto;shape-rendering:auto;text-rendering:auto;enable-background:accumulate"
       d="m 3.0820312,1042.757 c 0.2193532,0 0.4386269,0.084 0.6060269,0.2511 l 0.9090401,0.909 L 6,1045.3184 l 1.4012277,-1.4013 0.9090402,-0.909 c 0.3347352,-0.3348 0.8789927,-0.3348 1.2137275,0 0.334735,0.3347 0.3347357,0.8772 0,1.212 l -0.9090403,0.9091 -1.4029015,1.4029 1.4029015,1.4013 0.9090403,0.909 c 0.3348,0.3348 0.3348,0.879 0,1.2137 -0.3347143,0.3348 -0.878928,0.3348 -1.2137275,0 L 7.4012277,1049.1471 6,1047.7442 l -1.4029018,1.4029 -0.9090401,0.909 c -0.3347349,0.3348 -0.8773188,0.3348 -1.2120536,0 -0.3347349,-0.3347 -0.3347349,-0.8789 0,-1.2137 l 0.9090402,-0.909 1.4012276,-1.4013 -1.4012276,-1.4029 -0.9090402,-0.9091 c -0.3348,-0.3348 -0.3348,-0.8773 0,-1.212 0.1673571,-0.1671 0.3866736,-0.2511 0.6060267,-0.2511 z"
       id="rect4134"
       inkscape:connector-curvature="0"
       sodipodi:nodetypes="sscccccccccscscccccccccscs" />
  </g>
</svg>
