<?xml version="1.0" encoding="UTF-8" standalone="no"?>
<!-- Created with Inkscape (http://www.inkscape.org/) -->

<svg
   xmlns:dc="http://purl.org/dc/elements/1.1/"
   xmlns:cc="http://creativecommons.org/ns#"
   xmlns:rdf="http://www.w3.org/1999/02/22-rdf-syntax-ns#"
   xmlns:svg="http://www.w3.org/2000/svg"
   xmlns="http://www.w3.org/2000/svg"
   xmlns:sodipodi="http://sodipodi.sourceforge.net/DTD/sodipodi-0.dtd"
   xmlns:inkscape="http://www.inkscape.org/namespaces/inkscape"
   id="svg3347"
   version="1.1"
   inkscape:version="0.91 r13725"
   width="22"
   height="22"
   viewBox="0 0 22 22"
   sodipodi:docname="toolbar_extensions.svg">
  <metadata
     id="metadata3353">
    <rdf:RDF>
      <cc:Work
         rdf:about="">
        <dc:format>image/svg+xml</dc:format>
        <dc:type
           rdf:resource="http://purl.org/dc/dcmitype/StillImage" />
        <dc:title />
      </cc:Work>
    </rdf:RDF>
  </metadata>
  <defs
     id="defs3351" />
  <sodipodi:namedview
     pagecolor="#ffffff"
     bordercolor="#666666"
     borderopacity="1"
     objecttolerance="10"
     gridtolerance="10"
     guidetolerance="10"
     inkscape:pageopacity="0"
     inkscape:pageshadow="2"
     inkscape:window-width="1920"
     inkscape:window-height="1058"
     id="namedview3349"
     showgrid="false"
     inkscape:zoom="32"
     inkscape:cx="9.339935"
     inkscape:cy="9.659087"
     inkscape:window-x="1912"
     inkscape:window-y="-8"
     inkscape:window-maximized="1"
     inkscape:current-layer="svg3347"
     inkscape:snap-page="true"
     inkscape:snap-center="true"
     inkscape:snap-midpoints="true"
     inkscape:snap-bbox="true"
     inkscape:bbox-paths="true"
     inkscape:bbox-nodes="true"
     inkscape:snap-bbox-edge-midpoints="true"
     inkscape:snap-bbox-midpoints="true"
     inkscape:object-paths="true"
     inkscape:snap-intersection-paths="true"
     inkscape:object-nodes="true"
     inkscape:snap-smooth-nodes="true" />
  <path
     style="color:#000000;clip-rule:nonzero;display:inline;overflow:visible;visibility:visible;opacity:1;isolation:auto;mix-blend-mode:normal;color-interpolation:sRGB;color-interpolation-filters:linearRGB;solid-color:#000000;solid-opacity:1;fill:#000000;fill-opacity:1;fill-rule:evenodd;stroke:none;stroke-width:1;stroke-linecap:round;stroke-linejoin:bevel;stroke-miterlimit:4;stroke-dasharray:none;stroke-dashoffset:0;stroke-opacity:1;color-rendering:auto;image-rendering:auto;shape-rendering:auto;text-rendering:auto;enable-background:accumulate"
     d="M 10.489408,4.2498488 C 9.6457101,4.2465748 8.9595838,4.9260453 8.9576082,5.7701287 l 0,0.9959049 -2.6674466,0 c -0.5762488,0 -0.9884464,0.4664406 -1.0401613,1.0406193 l 0,2.6728931 1.0015616,0.002 c 0.4218553,9.29e-4 0.8032137,0.171733 1.0787623,0.449126 0.2755512,0.277397 0.4424932,0.661259 0.4408492,1.0833 -0.00202,0.840359 -0.6796142,1.518302 -1.5196115,1.520281 l -1.0015616,0.004 0,2.67086 c 0,0.576541 0.4662452,0.98886 1.0401613,1.040657 l 2.6674466,0 0,-0.995905 c 0.00202,-0.844085 0.6881019,-1.523505 1.5317998,-1.520279 0.839994,0.002 1.517636,0.679915 1.519611,1.520279 l 0,0.995905 2.679635,0 c 0.57625,0 1.040163,-0.418627 1.040163,-1.04062 l 0,-2.674925 1.001563,0 c 0.839995,-0.002 1.517635,-0.67992 1.51961,-1.52028 0.0015,-0.422041 -0.165299,-0.805904 -0.440849,-1.083299 -0.27555,-0.277399 -0.656908,-0.448185 -1.078761,-0.449175 l -1.001563,0 0,-2.6749263 c 0,-0.5765031 -0.463912,-1.0406193 -1.040163,-1.0406193 l -2.679635,0 0,-0.995905 C 12.007037,4.9297649 11.329402,4.251826 10.489408,4.2498488 Z"
     id="path4181"
     inkscape:connector-curvature="0"
     sodipodi:nodetypes="cccssccscccsscccccsscccsccssccc" />
</svg>
